<svg width="20" height="20" viewBox="0 0 20 20" fill="none" xmlns="http://www.w3.org/2000/svg">
<path fill-rule="evenodd" clip-rule="evenodd" d="M8.68435 18.2301C4.70711 17.5993 1.66667 14.1547 1.66667 10C1.66667 5.39763 5.39763 1.66667 10 1.66667C14.6024 1.66667 18.3333 5.39763 18.3333 10C18.3333 14.4783 14.8008 18.1315 10.3702 18.3253C10.3699 18.2922 10.3676 18.2589 10.3632 18.2253C10.2286 17.1963 10.1451 15.6701 10.2886 14.2662C10.495 14.2878 10.7077 14.2987 10.9257 14.2987C11.7826 14.2987 12.714 14.2537 13.448 14.0213C13.8203 13.9034 14.2126 13.7161 14.5152 13.3984C14.8404 13.057 15.0118 12.6166 14.9994 12.117C14.9767 11.2083 14.4087 10.4373 13.7243 9.97823C13.0265 9.51012 12.0775 9.27348 11.1356 9.5736C10.2933 9.842 9.73634 10.4897 9.37513 11.2023C9.24183 11.4653 9.1293 11.7479 9.03442 12.0427C8.87116 11.8839 8.76468 11.7071 8.70344 11.5315C8.49433 10.9318 8.64713 9.91265 9.70208 8.7025C10.4097 7.89077 10.6953 6.98628 10.5624 6.15024C10.4312 5.32431 9.89847 4.6508 9.16398 4.34363C8.41474 4.03028 7.53241 4.12738 6.76553 4.67719C6.01433 5.21576 5.41158 6.1532 5.03197 7.48373C4.90571 7.92631 5.16213 8.38745 5.6047 8.51372C6.04728 8.63999 6.50842 8.38356 6.63469 7.94099C6.9495 6.83755 7.38836 6.28141 7.73665 6.0317C8.06926 5.79324 8.34429 5.80736 8.52092 5.88124C8.71233 5.96129 8.87403 6.14521 8.9164 6.41179C8.95715 6.66827 8.8955 7.09141 8.44577 7.6073C7.18601 9.0524 6.6444 10.6885 7.1297 12.0802C7.39881 12.852 7.93931 13.4317 8.66354 13.8047C8.47037 15.363 8.5457 17.0512 8.68435 18.2301ZM0 10C0 4.47715 4.47715 0 10 0C15.5228 0 20 4.47715 20 10C20 15.5228 15.5228 20 10 20C4.47715 20 0 15.5228 0 10ZM10.9257 12.6321C10.8119 12.6321 10.7032 12.6284 10.5995 12.6214C10.6754 12.3743 10.7628 12.151 10.8617 11.9558C11.1043 11.4773 11.3729 11.2472 11.6416 11.1616C12.0149 11.0426 12.4406 11.1241 12.7958 11.3623C13.1643 11.6096 13.3276 11.9332 13.3332 12.1586C13.3348 12.2218 13.3232 12.2337 13.3109 12.2463L13.3084 12.2489C13.2727 12.2864 13.173 12.3601 12.9448 12.4324C12.478 12.5802 11.775 12.6321 10.9257 12.6321Z" fill="#F80059"/>
</svg>
