<svg width="20" height="20" viewBox="0 0 20 20" fill="none" xmlns="http://www.w3.org/2000/svg">
<path fill-rule="evenodd" clip-rule="evenodd" d="M9.57908 4.34097C9.81154 4.10851 10.1884 4.10851 10.4209 4.34097L13.9923 7.9124C14.2248 8.14485 14.2248 8.52174 13.9923 8.75419C13.7599 8.98664 13.383 8.98664 13.1505 8.75419L9.99998 5.60366L6.84945 8.75419C6.61699 8.98664 6.24011 8.98664 6.00765 8.75419C5.7752 8.52174 5.7752 8.14485 6.00765 7.9124L9.57908 4.34097Z" fill="#685879"/>
<path fill-rule="evenodd" clip-rule="evenodd" d="M10.4209 15.4209C10.1885 15.6533 9.81158 15.6533 9.57912 15.4209L6.00769 11.8494C5.77524 11.617 5.77524 11.2401 6.00769 11.0077C6.24015 10.7752 6.61703 10.7752 6.84949 11.0077L10 14.1582L13.1506 11.0077C13.383 10.7752 13.7599 10.7752 13.9923 11.0077C14.2248 11.2401 14.2248 11.617 13.9923 11.8494L10.4209 15.4209Z" fill="#685879"/>
</svg>
