<svg width="20" height="20" viewBox="0 0 20 20" fill="none" xmlns="http://www.w3.org/2000/svg">
<path fill-rule="evenodd" clip-rule="evenodd" d="M10 2.50001C5.8579 2.50001 2.50004 5.85787 2.50004 10C2.50004 14.1421 5.8579 17.5 10 17.5C14.1422 17.5 17.5 14.1421 17.5 10C17.5 5.85787 14.1422 2.50001 10 2.50001ZM0.833374 10C0.833374 4.9374 4.93743 0.833344 10 0.833344C15.0626 0.833344 19.1667 4.9374 19.1667 10C19.1667 15.0626 15.0626 19.1667 10 19.1667C4.93743 19.1667 0.833374 15.0626 0.833374 10Z" fill="white"/>
<path fill-rule="evenodd" clip-rule="evenodd" d="M9.99998 12.5C8.32947 12.5 7.55492 13.4202 7.412 13.706C7.20618 14.1176 6.70562 14.2845 6.29397 14.0787C5.88232 13.8728 5.71547 13.3723 5.92129 12.9606C6.33393 12.1354 7.67049 10.8333 9.99998 10.8333C12.3295 10.8333 13.666 12.1354 14.0787 12.9606C14.2845 13.3723 14.1176 13.8728 13.706 14.0787C13.2943 14.2845 12.7938 14.1176 12.588 13.706C12.445 13.4202 11.6705 12.5 9.99998 12.5Z" fill="white"/>
<path fill-rule="evenodd" clip-rule="evenodd" d="M6.66663 7.49999C6.66663 7.03975 7.03972 6.66666 7.49996 6.66666H7.50829C7.96853 6.66666 8.34163 7.03975 8.34163 7.49999C8.34163 7.96023 7.96853 8.33332 7.50829 8.33332H7.49996C7.03972 8.33332 6.66663 7.96023 6.66663 7.49999Z" fill="white"/>
<path fill-rule="evenodd" clip-rule="evenodd" d="M11.6666 7.49999C11.6666 7.03975 12.0397 6.66666 12.5 6.66666H12.5083C12.9685 6.66666 13.3416 7.03975 13.3416 7.49999C13.3416 7.96023 12.9685 8.33332 12.5083 8.33332H12.5C12.0397 8.33332 11.6666 7.96023 11.6666 7.49999Z" fill="white"/>
</svg>
