<svg width="20" height="20" viewBox="0 0 20 20" fill="none" xmlns="http://www.w3.org/2000/svg">
<path fill-rule="evenodd" clip-rule="evenodd" d="M9.99998 2.50004C5.85784 2.50004 2.49998 5.8579 2.49998 10C2.49998 14.1422 5.85784 17.5 9.99998 17.5C14.1421 17.5 17.5 14.1422 17.5 10C17.5 5.8579 14.1421 2.50004 9.99998 2.50004ZM0.833313 10C0.833313 4.93743 4.93737 0.833374 9.99998 0.833374C15.0626 0.833374 19.1666 4.93743 19.1666 10C19.1666 15.0626 15.0626 19.1667 9.99998 19.1667C4.93737 19.1667 0.833313 15.0626 0.833313 10Z" fill="#FF785A"/>
<path fill-rule="evenodd" clip-rule="evenodd" d="M9.99998 12.5C8.32947 12.5 7.55492 13.4202 7.412 13.7061C7.20618 14.1177 6.70562 14.2846 6.29397 14.0787C5.88232 13.8729 5.71547 13.3723 5.92129 12.9607C6.33393 12.1354 7.67049 10.8334 9.99998 10.8334C12.3295 10.8334 13.666 12.1354 14.0787 12.9607C14.2845 13.3723 14.1176 13.8729 13.706 14.0787C13.2943 14.2846 12.7938 14.1177 12.588 13.7061C12.445 13.4202 11.6705 12.5 9.99998 12.5Z" fill="#FF785A"/>
<path fill-rule="evenodd" clip-rule="evenodd" d="M6.66669 7.49996C6.66669 7.03972 7.03978 6.66663 7.50002 6.66663H7.50835C7.96859 6.66663 8.34169 7.03972 8.34169 7.49996C8.34169 7.9602 7.96859 8.33329 7.50835 8.33329H7.50002C7.03978 8.33329 6.66669 7.9602 6.66669 7.49996Z" fill="#FF785A"/>
<path fill-rule="evenodd" clip-rule="evenodd" d="M11.6667 7.49996C11.6667 7.03972 12.0398 6.66663 12.5 6.66663H12.5084C12.9686 6.66663 13.3417 7.03972 13.3417 7.49996C13.3417 7.9602 12.9686 8.33329 12.5084 8.33329H12.5C12.0398 8.33329 11.6667 7.9602 11.6667 7.49996Z" fill="#FF785A"/>
</svg>
