<svg width="20" height="20" viewBox="0 0 20 20" fill="none" xmlns="http://www.w3.org/2000/svg">
<path opacity="0.25" fill-rule="evenodd" clip-rule="evenodd" d="M9.99998 2.50001C5.85784 2.50001 2.49998 5.85787 2.49998 10C2.49998 14.1421 5.85784 17.5 9.99998 17.5C14.1421 17.5 17.5 14.1421 17.5 10C17.5 5.85787 14.1421 2.50001 9.99998 2.50001ZM0.833313 10C0.833313 4.9374 4.93737 0.833344 9.99998 0.833344C15.0626 0.833344 19.1666 4.9374 19.1666 10C19.1666 15.0626 15.0626 19.1667 9.99998 19.1667C4.93737 19.1667 0.833313 15.0626 0.833313 10Z" fill="white"/>
<path fill-rule="evenodd" clip-rule="evenodd" d="M9.99998 2.50001C5.85784 2.50001 2.49998 5.85787 2.49998 10C2.49998 14.1421 5.85784 17.5 9.99998 17.5C14.1421 17.5 17.5 14.1421 17.5 10C17.5 9.53977 17.8731 9.16668 18.3333 9.16668C18.7935 9.16668 19.1666 9.53977 19.1666 10C19.1666 15.0626 15.0626 19.1667 9.99998 19.1667C4.93737 19.1667 0.833313 15.0626 0.833313 10C0.833313 4.9374 4.93737 0.833344 9.99998 0.833344C10.4602 0.833344 10.8333 1.20644 10.8333 1.66668C10.8333 2.12691 10.4602 2.50001 9.99998 2.50001Z" fill="white"/>
</svg>
