<svg width="54" height="20" viewBox="0 0 54 20" fill="none" xmlns="http://www.w3.org/2000/svg">
<rect width="54" height="20" rx="10" fill="#FF2773"/>
<rect x="36" y="2" width="16" height="16" rx="8" fill="white"/>
<path d="M16.8535 9.70508C16.8535 11.123 16.502 12.2129 15.7988 12.9746C15.0957 13.7363 14.0879 14.1172 12.7754 14.1172C11.4629 14.1172 10.4551 13.7363 9.75195 12.9746C9.04883 12.2129 8.69727 11.1191 8.69727 9.69336C8.69727 8.26758 9.04883 7.17969 9.75195 6.42969C10.459 5.67578 11.4707 5.29883 12.7871 5.29883C14.1035 5.29883 15.1094 5.67773 15.8047 6.43555C16.5039 7.19336 16.8535 8.2832 16.8535 9.70508ZM10.6016 9.70508C10.6016 10.6621 10.7832 11.3828 11.1465 11.8672C11.5098 12.3516 12.0527 12.5938 12.7754 12.5938C14.2246 12.5938 14.9492 11.6309 14.9492 9.70508C14.9492 7.77539 14.2285 6.81055 12.7871 6.81055C12.0645 6.81055 11.5195 7.05469 11.1523 7.54297C10.7852 8.02734 10.6016 8.74805 10.6016 9.70508ZM26.2285 14H23.9199L20.1934 7.51953H20.1406C20.2148 8.66406 20.252 9.48047 20.252 9.96875V14H18.6289V5.43359H20.9199L24.6406 11.8496H24.6816C24.623 10.7363 24.5938 9.94922 24.5938 9.48828V5.43359H26.2285V14Z" fill="white"/>
</svg>
