<svg width="54" height="20" viewBox="0 0 54 20" fill="none" xmlns="http://www.w3.org/2000/svg">
<rect x="0.5" y="0.5" width="53" height="19" rx="9.5" fill="white" stroke="#685879"/>
<rect x="2" y="2" width="16" height="16" rx="8" fill="#685879"/>
<path d="M30.8535 9.70508C30.8535 11.123 30.502 12.2129 29.7988 12.9746C29.0957 13.7363 28.0879 14.1172 26.7754 14.1172C25.4629 14.1172 24.4551 13.7363 23.752 12.9746C23.0488 12.2129 22.6973 11.1191 22.6973 9.69336C22.6973 8.26758 23.0488 7.17969 23.752 6.42969C24.459 5.67578 25.4707 5.29883 26.7871 5.29883C28.1035 5.29883 29.1094 5.67773 29.8047 6.43555C30.5039 7.19336 30.8535 8.2832 30.8535 9.70508ZM24.6016 9.70508C24.6016 10.6621 24.7832 11.3828 25.1465 11.8672C25.5098 12.3516 26.0527 12.5938 26.7754 12.5938C28.2246 12.5938 28.9492 11.6309 28.9492 9.70508C28.9492 7.77539 28.2285 6.81055 26.7871 6.81055C26.0645 6.81055 25.5195 7.05469 25.1523 7.54297C24.7852 8.02734 24.6016 8.74805 24.6016 9.70508ZM34.416 14H32.6289V5.43359H37.5391V6.92188H34.416V9.13086H37.3223V10.6133H34.416V14ZM41.002 14H39.2148V5.43359H44.125V6.92188H41.002V9.13086H43.9082V10.6133H41.002V14Z" fill="#685879"/>
</svg>
